<svg xmlns="http://www.w3.org/2000/svg" width="115" height="48" fill="none"><g fill="#535861" clip-path="url(#a)"><path d="m44.438 24.312-.165-2.46 1.314-.128v-6.89l-1.314-.147.165-2.291h5.976v2.456l-1.202.128v2.035h3.971V14.98l-1.329-.128.165-2.456h5.973v2.456l-1.184.128v6.91l1.348.109-.164 2.313h-5.973l-.165-2.46 1.33-.128v-2.107h-3.972v2.126l1.366.094-.164 2.475h-5.976Z"/><path fill-rule="evenodd" d="M64.096 14.762c-3.318 0-5.155 1.795-5.155 4.875 0 3.06 1.838 5.077 5.155 5.077 3.13 0 5.174-1.998 5.174-5.077 0-3.08-1.856-4.875-5.174-4.875Zm-.004 2.419c1.22 0 1.583.897 1.583 2.493 0 1.612-.362 2.637-1.583 2.637-1.22 0-1.567-1.04-1.567-2.637 0-1.596.346-2.493 1.567-2.493Zm5.924 4.672.148 2.46 4.99-.004c3.353 0 4.81-.916 4.81-2.84 0-1.063-.785-1.63-1.602-1.96.672-.405 1.255-.991 1.255-1.833 0-1.596-.945-2.53-4.573-2.53h-4.79L70.09 17.6l.875.128v3.996l-.948.128Zm5.65-2.968a.744.744 0 0 0 .639-.75c0-.496-.273-.736-1.277-.736h-.765v1.486h1.403Zm-1.403 1.668v1.503h.877c1.108 0 1.403-.275 1.403-.823 0-.461-.238-.68-1.186-.68h-1.094Zm7.452 1.172-.948.127.146 2.457h4.99c3.26 0 4.918-1.228 4.918-3.5 0-2.182-1.95-2.968-4.901-2.968h-.729v-2.696h-4.173l-.16 2.456.857.128v3.996Zm10.259 2.587v-7.075l-.549-.131.146-1.96h4.558V17.6l-.713.11v4.18l.966.112-.163 2.306-4.245.003Zm-6.798-4.254v1.979h.657c.855 0 1.403-.275 1.403-1.135 0-.788-.638-.844-1.385-.844h-.675Zm19.11-9.093v.147c0 .24-.09.882-1.038.882-1.164 0-1.038-.972-1.038-.972v-.057l-3.023.421s.127 2.753 4.061 2.753c3.935 0 4.065-2.753 4.065-2.753l-3.027-.42Zm-6.174 6.764v6.583l2.534-.003.037-.09 3.659-4.73v2.382l-.803.312v2.126h5.066l.164-2.307-.967-.112v-4.161l.877-.128v-2.456h-4.045l-.019.056-3.043 3.959v-4.015h-4.173l-.164 2.456.877.128Z" clip-rule="evenodd"/><path d="M38.726 35.221c.242.096.502.14.762.128 1.313 0 2.168-1.026 2.35-6.433l-1.712-.165.164-2.475h11.388v2.456l-1.201.128v6.763l1.347.094-.146 2.475h-5.981l-.164-2.456 1.31-.128v-6.661h-1.766c-.037 7.147-2.06 9.64-4.827 9.64-1.167 0-1.66-.402-1.66-.402l.136-2.964Z"/><path fill-rule="evenodd" d="M58.066 36.075c-1.02 0-1.639-.328-1.875-1.356H61.4a4.07 4.07 0 0 0 .455-1.923c0-2.621-1.512-4.16-4.372-4.16-2.695 0-4.864 1.558-4.864 4.93s2.005 5.02 5.283 5.02c2.587 0 3.754-1.704 3.754-1.704l-1.549-1.705a3.181 3.181 0 0 1-2.041.898Zm.62-3.61h-2.569c.128-.972.511-1.43 1.385-1.43.948 0 1.202.551 1.202 1.063 0 .127-.019.367-.019.367Z" clip-rule="evenodd"/><path d="m68.324 32.98-.165-1.558a1.318 1.318 0 0 0-.93-.368c-.765 0-1.272.42-1.272 2.31 0 1.941.71 2.768 1.911 2.768 1.094 0 2.06-1.154 2.06-1.154l1.475 1.649s-1 1.96-3.898 1.96c-3.571 0-5.157-2.107-5.157-5.167 0-2.88 1.768-4.785 4.374-4.785.65.034 1.277.258 1.803.642l.31-.458h2.11l-.038 4.161h-2.583Zm9.384 0-.165-1.558a1.325 1.325 0 0 0-.929-.368c-.766 0-1.276.42-1.276 2.31 0 1.941.712 2.768 1.914 2.768 1.094 0 2.057-1.154 2.057-1.154l1.478 1.649s-1.004 1.96-3.9 1.96c-3.57 0-5.155-2.107-5.155-5.167 0-2.88 1.765-4.785 4.37-4.785.652.034 1.28.257 1.807.642l.31-.458h2.094l-.037 4.161h-2.568Zm3.79 5.205-.145-2.456.948-.127v-4l-.874-.127.164-2.456h4.17v3.263h2.59v-1.171l-.548-.131v-1.962h4.7v2.456l-.71.128v4.16l.966.113-.164 2.31h-4.244v-3.5h-2.59v1.408l.656.113-.163 1.978-4.756.001Z"/><path fill-rule="evenodd" d="M98.97 36.075c-1.02 0-1.639-.327-1.877-1.356h5.211a4.082 4.082 0 0 0 .455-1.922c0-2.622-1.512-4.161-4.372-4.161-2.695 0-4.864 1.558-4.864 4.93 0 3.373 2.005 5.021 5.283 5.021 2.586 0 3.754-1.705 3.754-1.705l-1.549-1.704a3.179 3.179 0 0 1-2.041.898Zm.62-3.61H97.02c.127-.971.511-1.43 1.385-1.43.948 0 1.202.552 1.202 1.063 0 .128-.019.368-.019.368Zm3.698 7.846.165 2.456h5.046l.165-2.31-.967-.109v-2.274h.108s.766.513 2.479.513c2.515 0 4.173-2.347 4.173-5.332 0-2.73-1.494-4.62-4.065-4.62-1.93 0-2.841.751-2.841.751h-.127l-.164-.367h-3.718l-.164 2.456.877.13v8.578l-.967.129Zm4.409-4.803v-3.61a1.852 1.852 0 0 1 1.456-.697c1.295 0 1.713.311 1.713 2.145 0 1.832-.492 2.714-1.785 2.714a1.855 1.855 0 0 1-1.384-.552Z" clip-rule="evenodd"/><path d="M52.233 47.18v-.832l-.415-.448-.878 1.28h-.817l1.233-1.776-1.19-1.36h.815l1.252 1.466v-1.465h.681v1.465l1.25-1.465h.814l-1.187 1.359 1.233 1.776h-.821l-.88-1.28-.408.448v.833h-.682Zm6.333 0h-.68v-2.054l-1.359 2.055h-.647v-3.136h.678v2.057l1.37-2.057h.638v3.135Zm3.834-3.135v3.136h-.684v-2.513h-.898v.237c0 1.845-.31 2.316-1.013 2.316a1.779 1.779 0 0 1-.36-.04l.044-.567h.108c.369 0 .58-.24.58-1.927v-.651l2.223.009Z"/><path fill-rule="evenodd" d="M64.45 44.039a1.668 1.668 0 0 0-.992 1.573c0 .438.175.856.486 1.161.311.306.731.471 1.165.46a1.658 1.658 0 0 0 1.54-1.036 1.676 1.676 0 0 0-.377-1.824 1.65 1.65 0 0 0-1.822-.334Zm1.341.885a.955.955 0 0 1 .259.69h.015a.928.928 0 0 1-1.298.908.945.945 0 0 1-.513-.536.957.957 0 0 1-.063-.373.938.938 0 0 1 .254-.694.925.925 0 0 1 .675-.291.945.945 0 0 1 .671.296Zm3.035-1.867-.396.071a.754.754 0 0 0 .748.674c.383 0 .705-.29.748-.674l-.396-.07a.357.357 0 0 1-.704 0Zm1.007 4.124h.675v-3.135h-.635l-1.372 2.056v-2.057h-.675v3.135h.644l1.363-2.054v2.055Z" clip-rule="evenodd"/><path d="M73.482 44.045h.688v1.372l1.26-1.372h.83l-1.27 1.331 1.326 1.805h-.82l-.968-1.335-.358.378v.957h-.688v-3.136Z"/><path fill-rule="evenodd" d="M77.81 44.038a1.666 1.666 0 0 0-.99 1.574h.011c0 .435.173.852.482 1.157.308.304.725.472 1.157.465a1.658 1.658 0 0 0 1.54-1.037 1.675 1.675 0 0 0-.377-1.825 1.65 1.65 0 0 0-1.822-.334Zm1.343.886a.955.955 0 0 1 .259.688.985.985 0 0 1-.617.914.976.976 0 0 1-1.328-.754.99.99 0 0 1 .077-.572.978.978 0 0 1 .939-.573.946.946 0 0 1 .67.296Z" clip-rule="evenodd"/><path d="M81.184 44.044h.74l.819 1.328.82-1.328h.739v3.135h-.682v-2.043l-.877 1.337h-.019l-.868-1.325v2.032h-.671v-3.136Zm4.31 0h2.603v3.135h-.688v-2.511h-1.227v2.512h-.688v-3.136Zm6.433 0v3.136h-.684v-2.512h-.902v.237c0 1.845-.31 2.316-1.01 2.316a1.75 1.75 0 0 1-.36-.04l.044-.568a.846.846 0 0 0 .108 0c.37 0 .58-.24.58-1.927v-.65l2.224.008Zm1.193 0h2.351v.615h-1.67v.636h1.47v.613H93.8v.658h1.692v.614H93.12v-3.136Zm3.43 0h.685v1.372l1.265-1.372h.826l-1.266 1.332 1.325 1.804h-.824l-.967-1.334-.359.377v.957h-.684v-3.136Zm3.332 1.569a1.6 1.6 0 0 1 .469-1.16 1.578 1.578 0 0 1 1.158-.461c.456-.015.896.172 1.205.51l-.409.475a1.095 1.095 0 0 0-.803-.35.983.983 0 0 0-.904.986c0 .515.394.944.904.984.312-.003.609-.135.821-.364l.434.467a1.654 1.654 0 0 1-2.567-.168 1.672 1.672 0 0 1-.308-.92ZM9.51 11.486h1.196v2.918H9.51v-2.918Zm13.254-.122h1.195v3.039h-1.195v-3.04Z"/><path d="M12.8 8.415a2.715 2.715 0 0 1-2.24 2.537 2.7 2.7 0 0 1-2.956-1.63 2.73 2.73 0 0 1 .92-3.264 2.693 2.693 0 0 1 3.368.176 5.112 5.112 0 0 1-.06-.727 4.82 4.82 0 0 1 .056-.704A3.86 3.86 0 0 0 7.48 5.4a3.919 3.919 0 0 0 .548 6.164c.673.43 1.46.64 2.258.605a3.882 3.882 0 0 0 3.523-2.731 4.863 4.863 0 0 1-1.01-1.023Zm10.562-4.073a3.84 3.84 0 0 0-1.859.477c.032.22.049.442.05.663a5.107 5.107 0 0 1-.072.82 2.686 2.686 0 0 1 3.395-.304 2.724 2.724 0 0 1-.222 4.634 2.696 2.696 0 0 1-1.79.283 2.71 2.71 0 0 1-2.197-2.62 4.952 4.952 0 0 1-1.023 1.056 3.881 3.881 0 0 0 4.466 2.72 3.903 3.903 0 0 0 3.12-4.21 3.892 3.892 0 0 0-3.868-3.528v.01Z"/><path fill-rule="evenodd" d="M11.244 5.483c0 3.027 2.44 5.482 5.45 5.482 3.007-.005 5.445-2.456 5.45-5.482 0-3.028-2.44-5.483-5.45-5.483-3.01 0-5.45 2.455-5.45 5.483Zm1.501-1.643a4.272 4.272 0 0 1 3.95-2.653c2.356.004 4.266 1.925 4.269 4.296a4.298 4.298 0 0 1-2.636 3.973 4.253 4.253 0 0 1-4.657-.93 4.317 4.317 0 0 1-.926-4.686Z" clip-rule="evenodd"/><path d="M18.497 5.065 16.75 6.764l-1.689-1.7-.836.861 1.877 1.87v6.91h1.193V7.943l2.051-2.013-.849-.864v-.001Zm8.98 42.692c-2.789 0-4.57-1.87-5.387-3.023-.815 1.14-2.584 3.023-5.376 3.023-2.791 0-4.603-1.892-5.43-3.03-.815 1.142-2.584 3.03-5.385 3.03-3.922 0-5.824-3.709-5.886-3.868l1.053-.533-.542.28.527-.264c.015.03 1.664 3.213 4.848 3.213 3.185 0 4.833-3.182 4.851-3.213l.518-1.03.53 1.023c.018.032 1.722 3.22 4.916 3.22 3.195 0 4.833-3.182 4.85-3.213l.526-1.044.526 1.04c0 .032 1.673 3.217 4.86 3.217 3.188 0 4.834-3.182 4.85-3.213l1.053.532c-.078.144-1.98 3.853-5.902 3.853Z"/><path fill-rule="evenodd" d="M4.4 35.782V13.745h24.853v22.038l-12.46 6.544L4.4 35.782Zm12.374 5.193 11.29-5.923V15.086H5.484v19.966l11.29 5.923Z" clip-rule="evenodd"/><path fill-rule="evenodd" d="M16.777 16.305H6.693v18.01l4.409 2.314.817.43 4.852 2.547 10.078-5.299V16.305H16.777ZM14.16 29.483a1.82 1.82 0 0 1-1.278 3.102 1.8 1.8 0 0 1-1.278-.534l-1.3-1.31a1.825 1.825 0 0 1 .274-2.793 1.806 1.806 0 0 1 1.696-.17c.22.09.418.224.585.393l.366.37 2.001-2.013.713.72-1.998 2.01.22.225Zm7.614 2.556 1.302-1.31v.013a1.827 1.827 0 0 0 0-2.568 1.8 1.8 0 0 0-2.556 0l-.366.367-2.75-2.767 2.573-2.59 1.55 1.558.715-.72-1.55-1.559.643-.645 1.533 1.559.703-.72-2.249-2.26-4.647 4.676-4.647-4.676-2.25 2.26.716.72 1.55-1.559.656.624L11.151 24l.716.743 1.534-1.56 6.025 6.075-.22.225a1.824 1.824 0 0 0-.457 1.758 1.8 1.8 0 0 0 3.026.798Z" clip-rule="evenodd"/><path d="M32.328 36.863c0 .032-1.646 3.217-4.849 3.217-2.168 0-3.637-1.484-4.337-2.435l-6.354 3.336-6.494-3.404c-.693.935-2.168 2.494-4.392 2.494-3.179 0-4.824-3.167-4.849-3.218L0 37.403c.077.158 1.98 3.868 5.902 3.868 2.788 0 4.57-1.89 5.385-3.03.826 1.138 2.63 3.03 5.43 3.03s4.56-1.87 5.375-3.024c.818 1.14 2.593 3.024 5.387 3.024 3.923 0 5.825-3.71 5.887-3.869l-1.038-.539Zm-10.53-8.206a.787.787 0 0 0-.56.234l-1.302 1.308a.803.803 0 0 0 0 1.135.812.812 0 0 0 1.125 0l1.301-1.31a.803.803 0 0 0-.564-1.367Zm-9.65.233a.795.795 0 0 0-1.334.36.807.807 0 0 0 .207.775l1.3 1.308a.814.814 0 0 0 1.129 0 .808.808 0 0 0 0-1.134l-1.301-1.31Z"/></g><defs><clipPath id="a"><path fill="#fff" d="M0 0h114.75v48H0z"/></clipPath></defs></svg>